<mxfile host="app.diagrams.net" agent="Mozilla/5.0 (Windows NT 10.0; Win64; x64) AppleWebKit/537.36 (KHTML, like Gecko) Chrome/130.0.0.0 Safari/537.36 Edg/130.0.0.0" version="24.8.4">
  <diagram name="Page-1" id="e7e014a7-5840-1c2e-5031-d8a46d1fe8dd">
    <mxGraphModel dx="872" dy="1327" grid="1" gridSize="10" guides="1" tooltips="1" connect="1" arrows="1" fold="1" page="1" pageScale="1" pageWidth="1100" pageHeight="850" background="none" math="0" shadow="0">
      <root>
        <mxCell id="0" />
        <mxCell id="1" parent="0" />
        <mxCell id="2" value="Thread 1" style="swimlane;whiteSpace=wrap" parent="1" vertex="1">
          <mxGeometry y="-230" width="280" height="990" as="geometry" />
        </mxCell>
        <mxCell id="jKVOVCP1xo0DysrYscWa-82" value="" style="edgeStyle=orthogonalEdgeStyle;rounded=0;orthogonalLoop=1;jettySize=auto;html=1;" edge="1" parent="2" source="7" target="8">
          <mxGeometry relative="1" as="geometry">
            <Array as="points">
              <mxPoint x="120" y="180" />
              <mxPoint x="120" y="180" />
            </Array>
          </mxGeometry>
        </mxCell>
        <mxCell id="7" value="Entra a internet" style="" parent="2" vertex="1">
          <mxGeometry x="65" y="100" width="110" height="50" as="geometry" />
        </mxCell>
        <mxCell id="jKVOVCP1xo0DysrYscWa-78" value="" style="edgeStyle=orthogonalEdgeStyle;rounded=0;orthogonalLoop=1;jettySize=auto;html=1;" edge="1" parent="2" source="8" target="10">
          <mxGeometry relative="1" as="geometry">
            <Array as="points">
              <mxPoint x="123" y="270" />
              <mxPoint x="123" y="270" />
            </Array>
          </mxGeometry>
        </mxCell>
        <mxCell id="8" value="Búscar pagina" style="" parent="2" vertex="1">
          <mxGeometry x="65" y="190" width="115" height="50" as="geometry" />
        </mxCell>
        <mxCell id="jKVOVCP1xo0DysrYscWa-114" style="edgeStyle=orthogonalEdgeStyle;rounded=0;orthogonalLoop=1;jettySize=auto;html=1;" edge="1" parent="2" source="10">
          <mxGeometry relative="1" as="geometry">
            <mxPoint x="125" y="350" as="targetPoint" />
          </mxGeometry>
        </mxCell>
        <mxCell id="10" value="Regístrese" style="" parent="2" vertex="1">
          <mxGeometry x="60" y="270" width="130" height="50" as="geometry" />
        </mxCell>
        <mxCell id="jKVOVCP1xo0DysrYscWa-41" value="Cliente" style="shape=umlActor;verticalLabelPosition=bottom;verticalAlign=top;html=1;outlineConnect=0;" vertex="1" parent="2">
          <mxGeometry x="100" y="30" width="40" height="40" as="geometry" />
        </mxCell>
        <mxCell id="jKVOVCP1xo0DysrYscWa-73" value="" style="edgeStyle=orthogonalEdgeStyle;rounded=0;orthogonalLoop=1;jettySize=auto;html=1;" edge="1" parent="2" source="jKVOVCP1xo0DysrYscWa-42" target="jKVOVCP1xo0DysrYscWa-44">
          <mxGeometry relative="1" as="geometry" />
        </mxCell>
        <mxCell id="jKVOVCP1xo0DysrYscWa-42" value="&lt;font&gt;Busca Producto&lt;/font&gt;&amp;nbsp;" style="whiteSpace=wrap;html=1;" vertex="1" parent="2">
          <mxGeometry x="60" y="350" width="120" height="60" as="geometry" />
        </mxCell>
        <mxCell id="jKVOVCP1xo0DysrYscWa-72" value="" style="edgeStyle=orthogonalEdgeStyle;rounded=0;orthogonalLoop=1;jettySize=auto;html=1;" edge="1" parent="2" source="jKVOVCP1xo0DysrYscWa-44" target="jKVOVCP1xo0DysrYscWa-46">
          <mxGeometry relative="1" as="geometry" />
        </mxCell>
        <mxCell id="jKVOVCP1xo0DysrYscWa-44" value="&lt;font&gt;selecciona Producto&lt;/font&gt;&amp;nbsp;" style="whiteSpace=wrap;html=1;" vertex="1" parent="2">
          <mxGeometry x="60" y="440" width="120" height="60" as="geometry" />
        </mxCell>
        <mxCell id="jKVOVCP1xo0DysrYscWa-70" value="" style="edgeStyle=orthogonalEdgeStyle;rounded=0;orthogonalLoop=1;jettySize=auto;html=1;" edge="1" parent="2" source="jKVOVCP1xo0DysrYscWa-46" target="jKVOVCP1xo0DysrYscWa-48">
          <mxGeometry relative="1" as="geometry" />
        </mxCell>
        <mxCell id="jKVOVCP1xo0DysrYscWa-46" value="va al carro de compras" style="whiteSpace=wrap;html=1;" vertex="1" parent="2">
          <mxGeometry x="60" y="530" width="120" height="60" as="geometry" />
        </mxCell>
        <mxCell id="jKVOVCP1xo0DysrYscWa-68" value="" style="edgeStyle=orthogonalEdgeStyle;rounded=0;orthogonalLoop=1;jettySize=auto;html=1;" edge="1" parent="2" source="jKVOVCP1xo0DysrYscWa-48" target="jKVOVCP1xo0DysrYscWa-50">
          <mxGeometry relative="1" as="geometry" />
        </mxCell>
        <mxCell id="jKVOVCP1xo0DysrYscWa-48" value="Confirma pedido" style="whiteSpace=wrap;html=1;" vertex="1" parent="2">
          <mxGeometry x="60" y="620" width="120" height="60" as="geometry" />
        </mxCell>
        <mxCell id="jKVOVCP1xo0DysrYscWa-67" value="" style="edgeStyle=orthogonalEdgeStyle;rounded=0;orthogonalLoop=1;jettySize=auto;html=1;" edge="1" parent="2" source="jKVOVCP1xo0DysrYscWa-50" target="jKVOVCP1xo0DysrYscWa-52">
          <mxGeometry relative="1" as="geometry" />
        </mxCell>
        <mxCell id="jKVOVCP1xo0DysrYscWa-50" value="Confirma datos" style="whiteSpace=wrap;html=1;" vertex="1" parent="2">
          <mxGeometry x="60" y="710" width="120" height="60" as="geometry" />
        </mxCell>
        <mxCell id="jKVOVCP1xo0DysrYscWa-66" value="" style="edgeStyle=orthogonalEdgeStyle;rounded=0;orthogonalLoop=1;jettySize=auto;html=1;" edge="1" parent="2" source="jKVOVCP1xo0DysrYscWa-52" target="jKVOVCP1xo0DysrYscWa-54">
          <mxGeometry relative="1" as="geometry" />
        </mxCell>
        <mxCell id="jKVOVCP1xo0DysrYscWa-52" value="Realiza el pago" style="whiteSpace=wrap;html=1;" vertex="1" parent="2">
          <mxGeometry x="60" y="800" width="120" height="60" as="geometry" />
        </mxCell>
        <mxCell id="jKVOVCP1xo0DysrYscWa-54" value="Término" style="whiteSpace=wrap;html=1;" vertex="1" parent="2">
          <mxGeometry x="60" y="890" width="120" height="60" as="geometry" />
        </mxCell>
        <mxCell id="3" value="Thread 2" style="swimlane;whiteSpace=wrap" parent="1" vertex="1">
          <mxGeometry x="320" y="-230" width="280" height="990" as="geometry">
            <mxRectangle x="320" y="-230" width="280" height="990" as="alternateBounds" />
          </mxGeometry>
        </mxCell>
        <mxCell id="jKVOVCP1xo0DysrYscWa-92" value="" style="edgeStyle=orthogonalEdgeStyle;rounded=0;orthogonalLoop=1;jettySize=auto;html=1;" edge="1" parent="3" source="jKVOVCP1xo0DysrYscWa-85" target="jKVOVCP1xo0DysrYscWa-91">
          <mxGeometry relative="1" as="geometry" />
        </mxCell>
        <mxCell id="jKVOVCP1xo0DysrYscWa-85" value="REGISTRO" style="html=1;whiteSpace=wrap;" vertex="1" parent="3">
          <mxGeometry x="30" y="110" width="110" height="50" as="geometry" />
        </mxCell>
        <mxCell id="jKVOVCP1xo0DysrYscWa-94" value="" style="edgeStyle=orthogonalEdgeStyle;rounded=0;orthogonalLoop=1;jettySize=auto;html=1;" edge="1" parent="3" source="jKVOVCP1xo0DysrYscWa-91">
          <mxGeometry relative="1" as="geometry">
            <mxPoint x="85" y="260" as="targetPoint" />
          </mxGeometry>
        </mxCell>
        <mxCell id="jKVOVCP1xo0DysrYscWa-91" value="da acceso" style="html=1;whiteSpace=wrap;" vertex="1" parent="3">
          <mxGeometry x="30" y="180" width="110" height="50" as="geometry" />
        </mxCell>
        <mxCell id="jKVOVCP1xo0DysrYscWa-96" value="" style="edgeStyle=orthogonalEdgeStyle;rounded=0;orthogonalLoop=1;jettySize=auto;html=1;" edge="1" parent="3" source="jKVOVCP1xo0DysrYscWa-93">
          <mxGeometry relative="1" as="geometry">
            <mxPoint x="85" y="330" as="targetPoint" />
          </mxGeometry>
        </mxCell>
        <mxCell id="jKVOVCP1xo0DysrYscWa-93" value="despliega Menú producto" style="html=1;whiteSpace=wrap;" vertex="1" parent="3">
          <mxGeometry x="30" y="260" width="110" height="50" as="geometry" />
        </mxCell>
        <mxCell id="jKVOVCP1xo0DysrYscWa-98" value="" style="edgeStyle=orthogonalEdgeStyle;rounded=0;orthogonalLoop=1;jettySize=auto;html=1;" edge="1" parent="3" source="jKVOVCP1xo0DysrYscWa-95">
          <mxGeometry relative="1" as="geometry">
            <mxPoint x="85" y="400" as="targetPoint" />
          </mxGeometry>
        </mxCell>
        <mxCell id="jKVOVCP1xo0DysrYscWa-95" value="identifica Producto selecionado" style="html=1;whiteSpace=wrap;" vertex="1" parent="3">
          <mxGeometry x="30" y="330" width="110" height="50" as="geometry" />
        </mxCell>
        <mxCell id="jKVOVCP1xo0DysrYscWa-100" value="" style="edgeStyle=orthogonalEdgeStyle;rounded=0;orthogonalLoop=1;jettySize=auto;html=1;" edge="1" parent="3" source="jKVOVCP1xo0DysrYscWa-97">
          <mxGeometry relative="1" as="geometry">
            <mxPoint x="85" y="470" as="targetPoint" />
          </mxGeometry>
        </mxCell>
        <mxCell id="jKVOVCP1xo0DysrYscWa-97" value=" RESERVA Producto" style="html=1;whiteSpace=wrap;" vertex="1" parent="3">
          <mxGeometry x="30" y="400" width="110" height="50" as="geometry" />
        </mxCell>
        <mxCell id="jKVOVCP1xo0DysrYscWa-102" value="" style="edgeStyle=orthogonalEdgeStyle;rounded=0;orthogonalLoop=1;jettySize=auto;html=1;" edge="1" parent="3" source="jKVOVCP1xo0DysrYscWa-99">
          <mxGeometry relative="1" as="geometry">
            <mxPoint x="85" y="540" as="targetPoint" />
          </mxGeometry>
        </mxCell>
        <mxCell id="jKVOVCP1xo0DysrYscWa-99" value="Confirma en inventario" style="html=1;whiteSpace=wrap;" vertex="1" parent="3">
          <mxGeometry x="30" y="470" width="110" height="50" as="geometry" />
        </mxCell>
        <mxCell id="jKVOVCP1xo0DysrYscWa-104" value="" style="edgeStyle=orthogonalEdgeStyle;rounded=0;orthogonalLoop=1;jettySize=auto;html=1;" edge="1" parent="3" source="jKVOVCP1xo0DysrYscWa-101">
          <mxGeometry relative="1" as="geometry">
            <mxPoint x="85" y="610" as="targetPoint" />
          </mxGeometry>
        </mxCell>
        <mxCell id="jKVOVCP1xo0DysrYscWa-101" value="Confirma datos de pago" style="html=1;whiteSpace=wrap;" vertex="1" parent="3">
          <mxGeometry x="30" y="540" width="110" height="50" as="geometry" />
        </mxCell>
        <mxCell id="jKVOVCP1xo0DysrYscWa-106" value="" style="edgeStyle=orthogonalEdgeStyle;rounded=0;orthogonalLoop=1;jettySize=auto;html=1;" edge="1" parent="3" source="jKVOVCP1xo0DysrYscWa-103">
          <mxGeometry relative="1" as="geometry">
            <mxPoint x="85" y="690" as="targetPoint" />
          </mxGeometry>
        </mxCell>
        <mxCell id="jKVOVCP1xo0DysrYscWa-103" value="Confirma el pago" style="html=1;whiteSpace=wrap;" vertex="1" parent="3">
          <mxGeometry x="30" y="610" width="110" height="50" as="geometry" />
        </mxCell>
        <mxCell id="jKVOVCP1xo0DysrYscWa-105" value="envia a despachar" style="html=1;whiteSpace=wrap;" vertex="1" parent="3">
          <mxGeometry x="30" y="690" width="110" height="50" as="geometry" />
        </mxCell>
        <mxCell id="4" value="Thread 3" style="swimlane;whiteSpace=wrap" parent="1" vertex="1">
          <mxGeometry x="645" y="-230" width="280" height="570" as="geometry">
            <mxRectangle x="640" y="-230" width="280" height="990" as="alternateBounds" />
          </mxGeometry>
        </mxCell>
        <mxCell id="jKVOVCP1xo0DysrYscWa-121" value="hace el despacho" style="html=1;whiteSpace=wrap;" vertex="1" parent="4">
          <mxGeometry x="110" y="340" width="110" height="50" as="geometry" />
        </mxCell>
        <mxCell id="jKVOVCP1xo0DysrYscWa-126" value="" style="edgeStyle=orthogonalEdgeStyle;rounded=0;orthogonalLoop=1;jettySize=auto;html=1;" edge="1" parent="4" source="jKVOVCP1xo0DysrYscWa-123" target="jKVOVCP1xo0DysrYscWa-121">
          <mxGeometry relative="1" as="geometry">
            <Array as="points">
              <mxPoint x="170" y="340" />
              <mxPoint x="170" y="340" />
            </Array>
          </mxGeometry>
        </mxCell>
        <mxCell id="jKVOVCP1xo0DysrYscWa-123" value="Confirma el pago" style="whiteSpace=wrap;html=1;" vertex="1" parent="4">
          <mxGeometry x="110" y="250" width="120" height="60" as="geometry" />
        </mxCell>
        <mxCell id="jKVOVCP1xo0DysrYscWa-108" value="Vendedor" style="shape=umlActor;verticalLabelPosition=bottom;verticalAlign=top;html=1;" vertex="1" parent="4">
          <mxGeometry x="135" y="80" width="50" height="60" as="geometry" />
        </mxCell>
        <mxCell id="jKVOVCP1xo0DysrYscWa-58" value="Sistema" style="shape=umlActor;verticalLabelPosition=bottom;verticalAlign=top;html=1;" vertex="1" parent="1">
          <mxGeometry x="380" y="-200" width="40" height="50" as="geometry" />
        </mxCell>
        <mxCell id="jKVOVCP1xo0DysrYscWa-124" value="" style="edgeStyle=orthogonalEdgeStyle;rounded=0;orthogonalLoop=1;jettySize=auto;html=1;" edge="1" parent="1" source="jKVOVCP1xo0DysrYscWa-120">
          <mxGeometry relative="1" as="geometry">
            <mxPoint x="805" y="20" as="targetPoint" />
          </mxGeometry>
        </mxCell>
        <mxCell id="jKVOVCP1xo0DysrYscWa-120" value="Revisa reservas" style="html=1;whiteSpace=wrap;" vertex="1" parent="1">
          <mxGeometry x="750" y="-50" width="110" height="50" as="geometry" />
        </mxCell>
        <mxCell id="jKVOVCP1xo0DysrYscWa-125" value="Revisar pedidos" style="html=1;whiteSpace=wrap;" vertex="1" parent="1">
          <mxGeometry x="750" y="-50" width="110" height="50" as="geometry" />
        </mxCell>
      </root>
    </mxGraphModel>
  </diagram>
</mxfile>
